<svg width="40" height="40" viewBox="0 0 40 40" fill="none" xmlns="http://www.w3.org/2000/svg">
<path d="M30.3783 10H9.64214C8.18228 10 7 11.1823 7 12.6319V26.8809C7 28.3305 8.18228 29.5128 9.63186 29.5128H30.3681C31.8177 29.5128 32.9999 28.3305 32.9999 26.8809V12.6319C33.0102 11.1823 31.8279 10 30.3783 10ZM30.1727 11.7374L22.8323 19.7872C22.0921 20.5891 21.0949 21.0415 19.9948 21.0415C18.8948 21.0415 17.8976 20.5994 17.1573 19.7872L9.83748 11.7374H30.1727ZM8.73744 26.5417V13.1048L15.132 20.1162L8.73744 26.5417ZM9.95057 27.7754L16.3246 21.3705C17.3321 22.2649 18.6481 22.7584 20.0051 22.7584C21.3622 22.7584 22.6781 22.2546 23.6856 21.3705L30.0596 27.7754H9.95057ZM31.2728 26.5417L24.8782 20.1162L31.2728 13.1048V26.5417Z" fill="white"/>
</svg>
