<svg width="40" height="40" viewBox="0 0 40 40" fill="none" xmlns="http://www.w3.org/2000/svg">
<path d="M21.9592 24.5501C23.0388 24.2931 24.0671 23.8817 24.9926 23.3162C25.7124 22.8535 25.8666 21.928 25.4039 21.2082C24.9412 20.5398 24.0671 20.3342 23.3473 20.7455C21.2394 22.0823 18.5144 22.0823 16.355 20.7455C15.6353 20.2828 14.7098 20.4884 14.2471 21.2082C13.7844 21.928 13.99 22.8535 14.7098 23.3162C15.6353 23.8817 16.6635 24.2931 17.6918 24.5501L14.8126 27.4293C14.2471 27.9949 14.1957 28.9717 14.8126 29.5373C15.1211 29.8458 15.481 30 15.8923 30C16.3036 30 16.6635 29.8458 16.972 29.5373L19.8512 26.7095L22.679 29.5373C23.2959 30.1028 24.2214 30.1028 24.8383 29.4859C25.4039 28.9203 25.4039 27.9434 24.8383 27.3779L21.9592 24.5501ZM19.8512 20.3342C22.7304 20.3342 25.044 18.0206 25.044 15.1414C25.044 12.3136 22.7304 10 19.8512 10C16.972 10 14.7098 12.3136 14.7098 15.1928C14.7098 18.0206 17.0234 20.3342 19.8512 20.3342ZM19.8512 13.0334C21.0337 13.0334 22.0106 14.0103 22.0106 15.1928C22.0106 16.3753 21.0337 17.3522 19.8512 17.3522C18.6687 17.3522 17.6918 16.3753 17.6918 15.1928C17.7432 14.0103 18.6687 13.0334 19.8512 13.0334Z" fill="white"/>
</svg>
