<svg width="40" height="40" viewBox="0 0 40 40" fill="none" xmlns="http://www.w3.org/2000/svg">
<path d="M30.9569 25.9744L30.7877 26.5949C30.4492 27.8923 29.5467 28.964 28.3058 29.4153C27.4033 29.8101 26.2751 29.9793 25.0342 29.9793C24.0753 29.9793 23.0035 29.8665 21.819 29.6409C16.0655 28.4563 11.6658 22.6464 9.74796 18.3031C9.35311 17.4006 9.07108 16.4417 9.01467 15.4264C8.95827 14.6367 9.07108 14.0162 9.2403 13.3393C9.40952 12.6061 9.74796 11.8728 10.312 11.3087C11.553 10.0678 13.1324 9.95494 13.7528 10.0113C14.3169 10.0678 14.881 10.4062 15.163 10.9139C15.7271 12.0984 16.7988 14.2419 17.0244 15.2008C17.3065 16.3853 16.0091 17.8519 15.3322 18.4724C16.8552 21.5183 19.1679 23.4361 22.5523 24.6207C23.5112 23.4361 24.4137 22.8157 24.9778 22.4772C25.4854 22.1952 26.1059 22.1952 26.6136 22.4208L30.1108 24.1694C30.7877 24.5079 31.1261 25.2412 30.9569 25.9744Z" fill="white"/>
</svg>
