<svg width="40" height="40" viewBox="0 0 40 40" fill="none" xmlns="http://www.w3.org/2000/svg">
<path fill-rule="evenodd" clip-rule="evenodd" d="M26.3708 29.7777C26.697 30.0079 27.1094 30.0654 27.4739 29.9216C27.8481 29.7777 28.1166 29.4611 28.1934 29.0774C29.0663 24.991 31.1671 14.6599 31.9632 10.9476C32.0208 10.6694 31.9249 10.372 31.7042 10.1898C31.4836 10.0075 31.1767 9.94996 30.9081 10.0459C26.7257 11.6095 13.8142 16.4537 8.53834 18.401C8.2026 18.5257 7.98197 18.8422 8.00116 19.1971C8.01075 19.5521 8.25056 19.859 8.59589 19.9645C10.9652 20.6744 14.0732 21.6528 14.0732 21.6528C14.0732 21.6528 15.5217 26.0366 16.2795 28.2716C16.3754 28.5498 16.596 28.7705 16.8838 28.8472C17.1716 28.9239 17.4786 28.8472 17.6992 28.6362C18.9174 27.4851 20.7976 25.7104 20.7976 25.7104C20.7976 25.7104 24.3468 28.3388 26.3708 29.7777ZM15.3682 21.106L17.0469 26.6409L17.421 23.1301C17.421 23.1301 23.9055 17.2786 27.6082 13.9404C27.7138 13.8445 27.7329 13.6814 27.637 13.5663C27.5507 13.4512 27.3876 13.4224 27.2629 13.4992C22.9751 16.2426 15.3682 21.106 15.3682 21.106Z" fill="white"/>
</svg>
