<svg width="40" height="40" viewBox="0 0 40 40" fill="none" xmlns="http://www.w3.org/2000/svg">
<path d="M34.6171 12.2197C34.8303 11.5211 34.6171 11 33.6105 11H30.2947C29.454 11 29.0632 11.45 28.85 11.9355C28.85 11.9355 27.1684 16.0447 24.7763 18.7211C24.0066 19.5026 23.6513 19.7395 23.2368 19.7395C23.0237 19.7395 22.7158 19.4908 22.7158 18.7921V12.2197C22.7158 11.3789 22.4671 11 21.7684 11H16.5579C16.0368 11 15.7171 11.3908 15.7171 11.7579C15.7171 12.5513 16.9132 12.7408 17.0316 14.9908V19.8816C17.0316 20.9474 16.8421 21.1487 16.4158 21.1487C15.2908 21.1487 12.5553 17.0158 10.9329 12.2908C10.625 11.3671 10.3053 11 9.45263 11H6.13684C5.18947 11 5 11.45 5 11.9355C5 12.8118 6.125 17.1697 10.2342 22.9368C12.9816 26.8684 16.8421 29 20.3474 29C22.4553 29 22.7158 28.5263 22.7158 27.7092V24.7368C22.7158 23.7895 22.9171 23.6 23.5803 23.6C24.0658 23.6 24.9184 23.8487 26.8842 25.7434C29.1342 27.9934 29.5013 29 30.7684 29H34.0842C35.0316 29 35.5053 28.5263 35.2329 27.5908C34.9368 26.6553 33.8592 25.3053 32.4382 23.7066C31.6684 22.7947 30.5079 21.8118 30.1526 21.3145C29.6553 20.675 29.7974 20.4026 30.1526 19.8342C30.1645 19.8461 34.2026 14.15 34.6171 12.2197Z" fill="white"/>
</svg>
