<svg width="84" height="44" viewBox="0 0 84 44" fill="none" xmlns="http://www.w3.org/2000/svg">
<path d="M0 16C0 7.16344 7.16344 0 16 0H84V28C84 36.8366 76.8366 44 68 44H0V16Z" fill="#F64909"/>
<path d="M19.5869 16H22.3069L27.7869 25.36V16H30.5069V30H27.7869L22.3069 20.58V30H19.5869V16ZM35.5908 16H44.6908V18.38H38.4508V21.6H43.9508V24H38.4508V27.62H44.6908V30H35.5908V16ZM47.6947 16H50.6747L52.8547 26.02L55.3347 16H58.1747L60.7347 26.02L62.9347 16H65.8147L62.4347 30H59.3147L56.7347 19.98L54.1947 30H51.0747L47.6947 16Z" fill="white"/>
</svg>
