<svg width="356" height="68" viewBox="0 0 356 68" fill="none" xmlns="http://www.w3.org/2000/svg">
<path d="M20.217 22.6276C19.5274 23.0994 18.4385 23.6076 16.9141 24.1883C15.3896 24.7327 13.6474 25.0231 11.6511 25.0231C7.69481 25.0231 4.79111 24.0431 2.86741 22.0468C0.980001 20.0868 0 16.9653 0 12.7187V0.668302H6.49704V12.5009C6.49704 13.735 6.60593 14.7876 6.78741 15.6587C6.96889 16.5298 7.33185 17.2194 7.8037 17.7638C8.27556 18.3083 8.92889 18.7076 9.7637 18.9616C10.5622 19.2157 11.6148 19.3246 12.8852 19.3246C14.6274 19.3246 16.1156 19.1068 17.3496 18.635C18.5837 18.1631 19.5637 17.6187 20.217 17.0016V0.632004H26.6778V38.6705H20.217V22.6276Z" fill="#F64909"/>
<path d="M44.0637 0.704601H50.5244V28.072L66.6037 0.704601H73.1733V38.7431H66.7126V11.3757L50.5244 38.7431H44.0637V0.704601Z" fill="#F64909"/>
<path d="M102.392 39.1787C98.1089 39.1787 94.8059 38.1624 92.4467 36.0935C90.0874 34.0609 88.7081 31.2661 88.3089 27.7453H94.7696C95.06 29.5601 95.7859 30.9757 96.9837 31.992C98.1815 33.0083 99.96 33.5165 102.356 33.5165C105.114 33.5165 107.074 33.0083 108.236 31.992C109.397 30.9757 110.014 29.5601 110.014 27.7453C110.014 25.8942 109.433 24.4787 108.236 23.4624C107.074 22.4461 105.078 21.9379 102.356 21.9379H97.637V16.3846H102.356C104.533 16.3846 106.167 15.9127 107.219 14.9327C108.272 13.989 108.816 12.7187 108.816 11.1579C108.816 9.52461 108.272 8.21792 107.219 7.23792C106.167 6.25792 104.533 5.78608 102.356 5.78608C100.141 5.78608 98.4356 6.25793 97.2741 7.20164C96.1126 8.14534 95.423 9.452 95.2778 11.1216H89.0348C89.18 9.52459 89.5793 8.07275 90.2326 6.72979C90.8859 5.38683 91.757 4.22534 92.8822 3.24534C94.0074 2.26534 95.3504 1.50311 96.9474 0.958668C98.5444 0.414224 100.323 0.160156 102.356 0.160156C104.461 0.160156 106.312 0.414224 107.909 0.958668C109.506 1.46682 110.885 2.22904 111.974 3.17274C113.063 4.11645 113.898 5.24164 114.442 6.51201C114.987 7.78238 115.277 9.19794 115.277 10.7224C115.277 12.6824 114.769 14.352 113.753 15.695C112.736 17.0379 111.43 18.0905 109.796 18.8165C111.865 19.4335 113.499 20.4861 114.696 21.9742C115.894 23.4624 116.511 25.4587 116.511 27.9994C116.511 29.669 116.221 31.1935 115.64 32.5728C115.059 33.952 114.188 35.1135 113.027 36.0935C111.865 37.0735 110.377 37.8357 108.599 38.3802C106.82 38.9246 104.787 39.1787 102.392 39.1787Z" fill="#F64909"/>
<path d="M132.046 0.704601H156.619V6.25793H138.543V15.0053H145.439C147.835 15.0053 149.94 15.2957 151.755 15.8765C153.57 16.4572 155.094 17.2557 156.292 18.3083C157.49 19.3246 158.397 20.595 159.014 22.0468C159.595 23.4987 159.921 25.132 159.921 26.9105C159.921 28.689 159.631 30.2861 159.014 31.7379C158.433 33.1898 157.526 34.4239 156.292 35.4765C155.094 36.4928 153.57 37.3276 151.755 37.9083C149.94 38.489 147.835 38.7794 145.439 38.7794H132.082V0.704601H132.046ZM145.403 33.1898C148.198 33.1898 150.194 32.6453 151.464 31.5202C152.735 30.395 153.352 28.8705 153.352 26.9105C153.352 24.9142 152.735 23.3535 151.464 22.2283C150.23 21.1031 148.198 20.5224 145.403 20.5224H138.507V33.1898H145.403Z" fill="#F64909"/>
<path d="M175.384 0.704601H199.448V6.25793H181.844V16.4209H197.561V21.9742H181.844V33.2261H199.448V38.7794H175.384V0.704601Z" fill="#F64909"/>
<path d="M214.801 0.704601H228.159C232.986 0.704601 236.579 1.82978 239.011 4.04385C241.407 6.25793 242.641 9.27053 242.641 13.0816C242.641 16.929 241.443 19.9416 239.011 22.192C236.616 24.4061 232.986 25.5313 228.159 25.5313H221.262V38.7431H214.801V0.704601ZM228.195 19.9779C230.99 19.9779 232.986 19.3972 234.256 18.2357C235.49 17.0742 236.144 15.3683 236.144 13.0816C236.144 10.8676 235.527 9.16164 234.256 8.00016C233.022 6.83868 230.99 6.25793 228.195 6.25793H221.299V20.0142H228.195V19.9779Z" fill="#F64909"/>
<path d="M257.921 0.704601H271.279C276.106 0.704601 279.699 1.82978 282.131 4.04385C284.527 6.25793 285.761 9.27053 285.761 13.0816C285.761 16.929 284.563 19.9416 282.131 22.192C279.736 24.4061 276.106 25.5313 271.279 25.5313H264.382V38.7431H257.921V0.704601ZM271.279 19.9779C274.073 19.9779 276.07 19.3972 277.34 18.2357C278.574 17.0742 279.227 15.3683 279.227 13.0816C279.227 10.8676 278.61 9.16164 277.34 8.00016C276.106 6.83868 274.073 6.25793 271.279 6.25793H264.382V20.0142H271.279V19.9779Z" fill="#F64909"/>
<path d="M301.005 0.704601H307.466V28.072L323.545 0.704601H330.115V38.7431H323.654V11.3757L307.466 38.7431H301.005V0.704601Z" fill="#F64909"/>
<path d="M41.9222 62.8802H43.1926C43.4467 62.4809 43.6644 62.0453 43.8096 61.6098C43.9548 61.1742 44.1 60.6661 44.1726 60.0853C44.2452 59.5046 44.3178 58.9238 44.3541 58.2342C44.3904 57.5446 44.3904 56.7824 44.3904 55.9113V52.6809H52.4482V62.8802H53.9726V67.272H51.7222V64.9853H44.1726V67.272H41.9222V62.8802ZM49.9437 62.8802V54.7861H46.7496V55.9476C46.7496 56.6735 46.7496 57.3631 46.7133 57.9802C46.677 58.5972 46.6407 59.2142 46.5681 59.7587C46.4956 60.3394 46.3867 60.8476 46.2778 61.392C46.1326 61.9002 45.9874 62.4083 45.7696 62.8802H49.9437Z" fill="#F64909"/>
<path d="M60.5785 52.6809H68.5637V54.7861H63.083V57.5809H67.9104V59.6861H63.083V62.8439H68.5637V64.949H60.5785V52.6809Z" fill="#F64909"/>
<path d="M80.0696 65.1668C78.5452 65.1668 77.3837 64.695 76.5126 63.7513C75.6415 62.8076 75.2059 61.3557 75.2059 59.3957V57.9802C75.2059 56.2016 75.6415 54.8587 76.5126 53.915C77.3837 53.0076 78.5815 52.5357 80.0696 52.5357C80.7956 52.5357 81.4489 52.6446 81.9933 52.8261C82.5378 53.0076 83.0096 53.2979 83.4089 53.6246C83.8082 53.9876 84.0985 54.3868 84.3163 54.895C84.5341 55.4031 84.6793 55.9476 84.7519 56.5646H82.2474C82.1385 55.9839 81.9207 55.512 81.5941 55.1853C81.2674 54.8587 80.7593 54.6772 80.0696 54.6772C79.3437 54.6772 78.763 54.9313 78.3274 55.4394C77.8919 55.9476 77.7104 56.7824 77.7104 57.9439V59.3594C77.7104 60.049 77.783 60.5935 77.8919 61.0653C78.0007 61.5372 78.1459 61.9002 78.3637 62.1905C78.5815 62.4809 78.7993 62.6624 79.0896 62.8076C79.38 62.9528 79.7067 62.989 80.1059 62.989C80.7956 62.989 81.3037 62.8076 81.5941 62.4809C81.9207 62.1542 82.1385 61.6461 82.2474 61.029H84.7519C84.6067 62.3357 84.1348 63.352 83.3726 64.0779C82.6104 64.8039 81.4852 65.1668 80.0696 65.1668Z" fill="#F64909"/>
<path d="M91.5756 52.6809H99.5607V54.7861H94.08V57.5809H98.9074V59.6861H94.08V62.8439H99.5607V64.949H91.5756V52.6809Z" fill="#F64909"/>
<path d="M106.602 52.6809H111.067C112.7 52.6809 113.898 53.0439 114.696 53.7698C115.495 54.4957 115.894 55.512 115.894 56.7461C115.894 58.0164 115.495 58.9964 114.696 59.7587C113.898 60.4846 112.7 60.8476 111.067 60.8476H109.107V64.949H106.602V52.6809ZM111.067 58.7787C111.901 58.7787 112.482 58.5972 112.845 58.2705C113.208 57.9439 113.39 57.4357 113.39 56.7824C113.39 56.129 113.208 55.6209 112.845 55.2942C112.482 54.9676 111.901 54.7861 111.067 54.7861H109.107V58.7787H111.067Z" fill="#F64909"/>
<path d="M125.186 54.8224H121.665V52.7172H131.211V54.8224H127.69V65.0216H125.186V54.8224Z" fill="#F64909"/>
<path d="M137.708 52.6809H140.213V57.109H141.664C142.463 57.109 143.189 57.2179 143.806 57.3994C144.423 57.5809 144.931 57.8713 145.33 58.1979C145.73 58.5609 146.02 58.9602 146.238 59.432C146.419 59.9039 146.528 60.4483 146.528 61.029C146.528 61.6098 146.419 62.1542 146.238 62.6261C146.056 63.0979 145.73 63.5335 145.33 63.8601C144.931 64.2231 144.423 64.4772 143.806 64.6587C143.189 64.8401 142.499 64.949 141.664 64.949H137.708V52.6809ZM141.664 62.8802C142.499 62.8802 143.08 62.735 143.443 62.4083C143.806 62.0816 143.987 61.6461 143.987 61.0653C143.987 60.4846 143.806 60.049 143.443 59.7224C143.08 59.3957 142.499 59.2505 141.664 59.2505H140.213V62.8802H141.664ZM147.254 52.6809H149.759V64.9853H147.254V52.6809Z" fill="#F64909"/>
<path d="M166.709 52.6809H176.11V64.9853H173.605V54.7861H169.213V64.9853H166.709V52.6809Z" fill="#F64909"/>
<path d="M188.196 65.1668C186.672 65.1668 185.51 64.695 184.639 63.7513C183.768 62.8076 183.333 61.3557 183.333 59.3957V57.9802C183.333 56.2016 183.768 54.8224 184.639 53.915C185.51 53.0076 186.708 52.5357 188.196 52.5357C189.721 52.5357 190.882 53.0076 191.753 53.915C192.624 54.8224 193.06 56.2016 193.06 57.9802V59.3957C193.06 61.3557 192.624 62.8076 191.753 63.7513C190.882 64.695 189.684 65.1668 188.196 65.1668ZM188.196 62.989C188.559 62.989 188.886 62.9165 189.176 62.8076C189.467 62.6987 189.721 62.4809 189.939 62.2268C190.12 61.9364 190.301 61.5735 190.41 61.1016C190.519 60.6298 190.592 60.0853 190.592 59.3957V57.9802C190.592 56.7824 190.374 55.9476 189.975 55.4394C189.539 54.9313 188.959 54.6772 188.233 54.6772C187.507 54.6772 186.926 54.9313 186.49 55.4394C186.055 55.9476 185.873 56.7824 185.873 57.9802V59.3957C185.873 60.0853 185.946 60.6298 186.055 61.1016C186.164 61.5735 186.309 61.9364 186.527 62.2268C186.708 62.5172 186.962 62.6987 187.253 62.8076C187.47 62.9165 187.797 62.989 188.196 62.989Z" fill="#F64909"/>
<path d="M208.45 62.6987C208.849 62.6624 209.176 62.5535 209.43 62.4083C209.684 62.2631 209.901 62.009 210.047 61.6098C210.192 61.2468 210.301 60.7387 210.337 60.1216C210.373 59.5046 210.41 58.7061 210.41 57.6898V52.6809H218.758V64.9853H216.29V54.7861H212.769V57.6898C212.769 59.1416 212.696 60.3394 212.551 61.2831C212.406 62.2268 212.152 62.989 211.825 63.5335C211.499 64.0779 211.027 64.4772 210.482 64.7313C209.938 64.949 209.248 65.0942 208.45 65.1305V62.6987Z" fill="#F64909"/>
<path d="M234.91 65.1668C234.22 65.1668 233.603 65.0579 233.059 64.8765C232.514 64.695 232.042 64.3683 231.679 63.9327C231.28 63.4972 230.99 62.9165 230.772 62.2631C230.554 61.5735 230.445 60.7387 230.409 59.795H228.957V65.0579H226.453V52.7535H228.957V57.6898H230.409C230.481 55.9113 230.917 54.6409 231.716 53.8424C232.514 53.0439 233.567 52.6446 234.946 52.6446C235.672 52.6446 236.289 52.7535 236.87 52.9713C237.45 53.189 237.922 53.5157 238.285 53.9876C238.684 54.4231 238.975 55.0039 239.156 55.7298C239.374 56.4194 239.447 57.2542 239.447 58.2342V59.3594C239.447 60.412 239.338 61.3194 239.156 62.0816C238.939 62.8439 238.648 63.4609 238.285 63.9327C237.886 64.4046 237.414 64.7676 236.87 64.9853C236.253 65.0579 235.636 65.1668 234.91 65.1668ZM234.91 62.989C235.236 62.989 235.49 62.9527 235.744 62.8439C235.999 62.735 236.216 62.5535 236.361 62.2994C236.543 62.009 236.688 61.6461 236.761 61.1379C236.87 60.6298 236.906 60.0128 236.906 59.2505V58.1253C236.906 57.4357 236.87 56.855 236.761 56.4194C236.652 55.9838 236.543 55.6209 236.361 55.3668C236.18 55.1128 235.962 54.9313 235.744 54.8224C235.49 54.7135 235.2 54.6772 234.91 54.6772C234.619 54.6772 234.329 54.7135 234.075 54.8224C233.821 54.9313 233.603 55.0765 233.421 55.3668C233.24 55.6209 233.095 55.9838 233.022 56.4194C232.95 56.855 232.877 57.4357 232.877 58.1253V59.2505C232.877 60.0128 232.913 60.6661 233.022 61.1379C233.131 61.6461 233.24 62.009 233.421 62.2994C233.603 62.5898 233.821 62.7713 234.075 62.8439C234.329 62.9527 234.619 62.989 234.91 62.989Z" fill="#F64909"/>
<path d="M246.633 52.6809H254.836V54.7861H249.138V57.109H251.098C251.933 57.109 252.622 57.2179 253.239 57.3994C253.856 57.5809 254.328 57.8713 254.727 58.1979C255.127 58.5609 255.417 58.9602 255.635 59.432C255.816 59.9039 255.925 60.4483 255.925 61.029C255.925 61.6098 255.816 62.1542 255.635 62.6261C255.453 63.0979 255.127 63.5335 254.727 63.8601C254.328 64.2231 253.82 64.4772 253.239 64.6587C252.622 64.8401 251.933 64.949 251.098 64.949H246.633V52.6809ZM251.098 62.8802C251.933 62.8802 252.513 62.735 252.876 62.4083C253.239 62.0816 253.421 61.6461 253.421 61.0653C253.421 60.4846 253.239 60.049 252.876 59.7224C252.513 59.3957 251.933 59.2505 251.098 59.2505H249.138V62.8802H251.098Z" fill="#F64909"/>
<path d="M262.967 52.6809H267.576C268.956 52.6809 270.044 52.9713 270.807 53.5157C271.569 54.0601 271.968 54.895 271.968 55.9476C271.968 56.5646 271.823 57.0727 271.533 57.5083C271.242 57.9438 270.843 58.2705 270.407 58.5609C271.024 58.7787 271.496 59.1416 271.823 59.6135C272.186 60.0853 272.331 60.7024 272.331 61.5009C272.331 62.009 272.259 62.4446 272.077 62.8802C271.896 63.3157 271.642 63.6787 271.242 63.9691C270.879 64.2957 270.407 64.5135 269.827 64.695C269.246 64.8765 268.556 64.9853 267.721 64.9853H263.003V52.6809H262.967ZM267.576 57.6898C268.23 57.6898 268.702 57.5446 268.992 57.2905C269.282 57.0364 269.427 56.6735 269.427 56.2742C269.427 55.8024 269.282 55.4757 268.992 55.1853C268.702 54.9313 268.23 54.7861 267.576 54.7861H265.471V57.6535H267.576V57.6898ZM267.576 62.8802C268.411 62.8802 268.956 62.735 269.319 62.4446C269.645 62.1542 269.827 61.755 269.827 61.2468C269.827 60.7024 269.681 60.3031 269.355 60.049C269.028 59.7587 268.447 59.6498 267.613 59.6498H265.507V62.8802H267.576Z" fill="#F64909"/>
<path d="M279.3 52.6809H281.804V60.9202L286.523 52.6809H289.064V64.9853H286.559V56.7461L281.804 64.9853H279.3V52.6809Z" fill="#F64909"/>
<path d="M349.642 12.392C348.807 12.392 348.045 12.2468 347.319 11.9202C346.593 11.5935 345.976 11.1942 345.432 10.6498C344.887 10.1053 344.488 9.4883 344.161 8.76237C343.835 8.03644 343.69 7.27422 343.69 6.43941C343.69 5.6046 343.835 4.84237 344.161 4.11645C344.488 3.39052 344.887 2.77348 345.432 2.22904C345.976 1.68459 346.593 1.28533 347.319 0.958667C348.045 0.632 348.807 0.486819 349.642 0.486819C350.477 0.486819 351.239 0.632 351.965 0.958667C352.691 1.28533 353.308 1.68459 353.853 2.22904C354.397 2.77348 354.796 3.39052 355.123 4.11645C355.45 4.84237 355.595 5.6046 355.595 6.43941C355.595 7.27422 355.45 8.03644 355.123 8.76237C354.796 9.4883 354.397 10.1053 353.853 10.6498C353.308 11.1942 352.691 11.5935 351.965 11.9202C351.239 12.2468 350.477 12.392 349.642 12.392ZM349.642 10.7224C350.223 10.7224 350.804 10.6135 351.312 10.3957C351.82 10.1779 352.292 9.85126 352.655 9.4883C353.054 9.08904 353.344 8.65348 353.562 8.14533C353.78 7.63718 353.889 7.05645 353.889 6.47571C353.889 5.89497 353.78 5.31422 353.562 4.80608C353.344 4.29793 353.018 3.82608 352.655 3.46312C352.256 3.06386 351.82 2.77349 351.312 2.55571C350.804 2.33793 350.223 2.22904 349.642 2.22904C349.061 2.22904 348.481 2.33793 347.973 2.55571C347.464 2.77349 346.993 3.10016 346.63 3.46312C346.23 3.86238 345.94 4.29793 345.722 4.80608C345.504 5.31422 345.396 5.89497 345.396 6.47571C345.396 7.05645 345.504 7.63718 345.722 8.14533C345.94 8.65348 346.267 9.12533 346.63 9.4883C347.029 9.88756 347.464 10.1779 347.973 10.3957C348.481 10.6135 349.061 10.7224 349.642 10.7224ZM347.464 3.53571H349.642C350.477 3.53571 351.094 3.71719 351.493 4.04385C351.893 4.37052 352.074 4.84238 352.074 5.45942C352.074 6.25794 351.711 6.83868 350.949 7.16535L352.038 9.4157H350.477L349.642 7.38312H348.916V9.4157H347.464V3.53571ZM349.642 6.07645C350.005 6.07645 350.259 6.04015 350.404 5.93126C350.55 5.82237 350.586 5.67719 350.586 5.45942C350.586 5.24164 350.513 5.09645 350.404 4.98756C350.259 4.87867 350.005 4.84237 349.642 4.84237H348.916V6.11275H349.642V6.07645Z" fill="#F64909"/>
</svg>
