<svg width="40" height="40" viewBox="0 0 40 40" fill="none" xmlns="http://www.w3.org/2000/svg">
<path d="M31.953 26.5901L31.7684 27.2733C31.3991 28.7019 30.4146 29.882 29.0608 30.3789C28.0763 30.8137 26.8456 31 25.4918 31C24.4457 31 23.2766 30.8758 21.9844 30.6273C15.7078 29.323 10.9081 22.9255 8.81596 18.1429C8.38521 17.1491 8.07754 16.0932 8.01601 14.9752C7.95447 14.1056 8.07754 13.4224 8.26215 12.6771C8.44675 11.8696 8.81596 11.0622 9.4313 10.4411C10.7851 9.07461 12.508 8.95039 13.1849 9.0125C13.8003 9.07461 14.4156 9.44728 14.7233 10.0063C15.3386 11.3106 16.5078 13.6709 16.7539 14.7268C17.0616 16.0311 15.6463 17.646 14.9079 18.3292C16.5693 21.6833 19.0922 23.7951 22.7843 25.0994C23.8304 23.7951 24.8149 23.1118 25.4303 22.7392C25.9841 22.4286 26.661 22.4286 27.2148 22.677L31.0299 24.6025C31.7684 24.9752 32.1376 25.7826 31.953 26.5901Z" fill="white"/>
</svg>
