<svg width="54" height="54" viewBox="0 0 54 54" fill="none" xmlns="http://www.w3.org/2000/svg">
<g clip-path="url(#clip0_650_3950)">
<path d="M35.9234 16.2C35.7891 14.5385 35.1179 9.41538 30.9559 5.12308C26.1227 0.138462 19.8126 0 17.933 0C16.0534 0 10.0119 0.138462 5.04438 5.12308C0.882424 9.41538 0.211141 14.6769 0.0768845 16.2C-0.325885 20.6308 0.882424 25.0615 3.03053 28.8L17.7988 53.8615L17.933 54L18.0673 53.8615L32.8355 28.8C35.1179 25.0615 36.3262 20.6308 35.9234 16.2ZM17.933 27C13.234 27 9.47485 23.1231 9.47485 18.2769C9.47485 13.4308 13.234 9.55385 17.933 9.55385C22.632 9.55385 26.3912 13.4308 26.3912 18.2769C26.3912 23.1231 22.632 27 17.933 27Z" fill="white"/>
</g>
<defs>
<clipPath id="clip0_650_3950">
<rect width="54" height="54" fill="white"/>
</clipPath>
</defs>
</svg>
