<svg width="40" height="40" viewBox="0 0 40 40" fill="none" xmlns="http://www.w3.org/2000/svg">
<path d="M27.3509 22.9471L27.2785 23.3816C27.0612 24.2507 26.4818 24.9749 25.6127 25.337C24.9609 25.6267 24.2367 25.6992 23.44 25.6992C22.7882 25.6992 22.064 25.6267 21.2673 25.4819C17.2841 24.6852 14.3871 20.7744 13.0835 17.8774C12.7938 17.298 12.649 16.5738 12.5765 15.922C12.5041 15.1978 12.649 14.6908 12.8662 13.9666C13.3008 12.5181 15.2562 12.2284 15.7632 12.3008C16.1977 12.3008 16.5598 12.5905 16.7047 12.9526C17.1392 13.7493 17.791 15.1978 17.9359 15.8496C18.1531 16.6462 17.2116 17.6602 16.7771 18.0223C17.791 20.0501 19.3843 21.3537 21.6295 22.1504C22.2813 21.3537 22.8607 20.9192 23.2952 20.7019C23.6573 20.4847 24.0194 20.4847 24.3815 20.7019L26.7715 21.8607C27.2785 21.9331 27.4958 22.4401 27.3509 22.9471Z" fill="white"/>
<path d="M27.3509 22.9471L27.2785 23.3816C27.0612 24.2507 26.4818 24.9749 25.6127 25.337C24.9609 25.6267 24.2367 25.6992 23.44 25.6992C22.7882 25.6992 22.064 25.6267 21.2673 25.4819C17.2841 24.6852 14.3871 20.7744 13.0835 17.8774C12.7938 17.298 12.649 16.5738 12.5765 15.922C12.5041 15.1978 12.649 14.6908 12.8662 13.9666C13.3008 12.5181 15.2562 12.2284 15.7632 12.3008C16.1977 12.3008 16.5598 12.5905 16.7047 12.9526C17.1392 13.7493 17.791 15.1978 17.9359 15.8496C18.1531 16.6462 17.2116 17.6602 16.7771 18.0223C17.791 20.0501 19.3843 21.3537 21.6295 22.1504C22.2813 21.3537 22.8607 20.9192 23.2952 20.7019C23.6573 20.4847 24.0194 20.4847 24.3815 20.7019L26.7715 21.8607C27.2785 21.9331 27.4958 22.4401 27.3509 22.9471Z" stroke="white" stroke-width="2" stroke-miterlimit="10"/>
<path d="M20.0362 6C12.8663 6 7 11.7939 7 19.0362C7 21.571 7.72423 23.8886 8.95543 25.9164C9.4624 26.7855 8.08635 29.5376 7 32.1448C10.6212 30.4067 12.0696 29.3928 12.7214 29.8273C14.8217 31.2033 17.2841 32.0724 19.9638 32.0724C27.1337 32.0724 33 26.2786 33 19.0362C33 11.7939 27.2061 6 20.0362 6Z" stroke="white" stroke-width="2" stroke-miterlimit="10"/>
</svg>
