<svg width="40" height="40" viewBox="0 0 40 40" fill="none" xmlns="http://www.w3.org/2000/svg">
<path d="M30.3783 10H9.64214C8.18228 10 7 11.2118 7 12.6976V27.3024C7 28.7882 8.18228 30 9.63186 30H30.3681C31.8177 30 32.9999 28.7882 32.9999 27.3024V12.6976C33.0102 11.2118 31.8279 10 30.3783 10ZM30.1727 11.7808L22.8323 20.0316C22.0921 20.8535 21.0949 21.3172 19.9948 21.3172C18.8948 21.3172 17.8976 20.8641 17.1573 20.0316L9.83748 11.7808H30.1727ZM8.73744 26.9547V13.1823L15.132 20.3688L8.73744 26.9547ZM9.95057 28.2192L16.3246 21.6544C17.3321 22.5711 18.6481 23.0769 20.0051 23.0769C21.3622 23.0769 22.6781 22.5606 23.6856 21.6544L30.0596 28.2192H9.95057ZM31.2728 26.9547L24.8782 20.3688L31.2728 13.1823V26.9547Z" fill="white"/>
</svg>
