<svg width="27" height="40" viewBox="0 0 27 40" fill="none" xmlns="http://www.w3.org/2000/svg">
<path d="M26.9425 12C26.8419 10.7692 26.3384 6.97436 23.2169 3.79487C19.592 0.102564 14.8595 0 13.4498 0C12.0401 0 7.5089 0.102564 3.78328 3.79487C0.661818 6.97436 0.158356 10.8718 0.0576634 12C-0.244414 15.2821 0.661818 18.5641 2.2729 21.3333L13.3491 39.8974L13.4498 40L13.5505 39.8974L24.6266 21.3333C26.3384 18.5641 27.2446 15.2821 26.9425 12ZM13.4498 20C9.92552 20 7.10614 17.1282 7.10614 13.5385C7.10614 9.94872 9.92552 7.07692 13.4498 7.07692C16.974 7.07692 19.7934 9.94872 19.7934 13.5385C19.7934 17.1282 16.974 20 13.4498 20Z" fill="#F64909"/>
</svg>
