<svg width="246" height="50" viewBox="0 0 246 50" fill="none" xmlns="http://www.w3.org/2000/svg">
<g clip-path="url(#clip0_2076_1362)">
<path d="M222.616 30.7998C222.383 31.0802 213.577 40.9374 213.386 41.1315C213.895 41.1531 214.426 41.0668 214.893 40.9374C215.657 40.7217 216.378 40.3766 217.036 39.9452C220.473 37.702 222.256 37.551 224.314 37.3138C227.285 36.9687 230.107 35.6961 232.292 33.6038C236.069 29.9802 235.666 26.335 235.857 25.9898C236.366 23.0995 237.512 22.2583 237.703 22.0642C239.507 20.3387 243.517 19.368 246 19.2386C245.024 18.8935 239.677 19.2171 237.725 19.9073C236.345 18.6347 233.735 17.4699 231.55 19.1524C231.019 19.5622 230.595 20.1445 230.319 20.7701C229.873 21.7622 229.3 23.229 228.876 23.7251C227.858 22.927 225.842 21.5681 223.953 20.3387C220.431 18.0307 216.505 16.4778 212.389 15.766C212.007 15.7013 211.773 15.6797 211.773 15.6797C211.773 15.6797 216.739 24.9761 218.245 26.8742C219.667 29.139 222.616 30.7998 222.616 30.7998Z" fill="#F64909"/>
<path d="M11.8191 32.0065C11.4159 32.2869 10.7794 32.5889 9.88816 32.934C8.99695 33.2575 7.97843 33.4301 6.81137 33.4301C4.49848 33.4301 2.80094 32.8477 1.67632 31.6614C0.572919 30.4966 0 28.6417 0 26.1181V18.957H3.77702V25.9886C3.77702 26.722 3.84068 27.3475 3.94678 27.8652C4.05287 28.3828 4.26506 28.7927 4.54091 29.1162C4.81676 29.4397 5.19871 29.677 5.68675 29.828C6.15357 29.979 6.76893 30.0437 7.5116 30.0437C8.53013 30.0437 9.40012 29.9143 10.1216 29.6339C10.843 29.3535 11.4159 29.0299 11.7979 28.6632V18.957H15.5749V41.5617H11.8191V32.0065Z" fill="#F64909"/>
<path d="M25.7598 18.957H29.5368V35.2203L38.9369 18.957H42.7776V41.5617H39.0006V25.2984L29.5368 41.5617H25.7598V18.957Z" fill="#F64909"/>
<path d="M59.86 41.8218C57.3561 41.8218 55.4252 41.2178 54.0459 39.9884C52.6667 38.7805 51.8604 37.1196 51.627 35.0274H55.404C55.5737 36.1059 55.9981 36.9471 56.6983 37.551C57.3986 38.155 58.4383 38.4569 59.8388 38.4569C61.4515 38.4569 62.5973 38.155 63.2763 37.551C63.9553 36.9471 64.316 36.1059 64.316 35.0274C64.316 33.9274 63.9765 33.0862 63.2763 32.4822C62.5973 31.8783 61.4302 31.5763 59.8388 31.5763H57.0803V28.2978H59.8388C61.1119 28.2978 62.0668 28.0174 62.6822 27.435C63.2975 26.8742 63.6158 26.1193 63.6158 25.1918C63.6158 24.2211 63.2975 23.4447 62.6822 22.8623C62.0668 22.2799 61.1119 21.9995 59.8388 21.9995C58.5444 21.9995 57.5471 22.2799 56.8681 22.8407C56.1891 23.4015 55.7859 24.178 55.701 25.1702H52.0513C52.1362 24.2211 52.3696 23.3584 52.7516 22.5603C53.1335 21.7622 53.6428 21.072 54.3006 20.4896C54.9584 19.9073 55.7435 19.4543 56.6771 19.1308C57.6108 18.8072 58.6505 18.6562 59.8388 18.6562C61.0695 18.6562 62.1517 18.8072 63.0853 19.1308C64.019 19.4327 64.8253 19.8857 65.4619 20.4465C66.0985 21.0073 66.5865 21.676 66.9048 22.4309C67.2231 23.1858 67.3928 24.027 67.3928 24.9329C67.3928 26.0977 67.0958 27.0899 66.5016 27.8879C65.9075 28.686 65.1436 29.3115 64.1887 29.7429C65.3982 30.1096 66.3531 30.7351 67.0533 31.6194C67.7536 32.5038 68.1143 33.6901 68.1143 35.2C68.1143 36.1921 67.9445 37.0981 67.605 37.9177C67.2655 38.7373 66.7563 39.4276 66.0772 40.0099C65.3982 40.5923 64.5282 41.0453 63.4885 41.3688C62.4488 41.6923 61.2605 41.8218 59.86 41.8218Z" fill="#F64909"/>
<path d="M77.1953 18.957H91.5607V22.2571H80.9936V27.4554H85.0252C86.4257 27.4554 87.6564 27.6279 88.7173 27.973C89.7783 28.3181 90.6695 28.7927 91.3698 29.4182C92.07 30.0221 92.6005 30.777 92.9612 31.6398C93.3007 32.5026 93.4917 33.4732 93.4917 34.5301C93.4917 35.587 93.3219 36.5361 92.9612 37.3988C92.6217 38.2616 92.0912 38.995 91.3698 39.6205C90.6695 40.2244 89.7783 40.7205 88.7173 41.0656C87.6564 41.4107 86.4257 41.5833 85.0252 41.5833H77.2165V18.957H77.1953ZM85.004 38.2616C86.6379 38.2616 87.8049 37.9381 88.5476 37.2694C89.2903 36.6008 89.651 35.6949 89.651 34.5301C89.651 33.3438 89.2903 32.4163 88.5476 31.7477C87.8261 31.079 86.6379 30.7339 85.004 30.7339H80.9723V38.2616H85.004Z" fill="#F64909"/>
<path d="M102.531 18.957H116.6V22.2571H106.308V28.2966H115.496V31.5967H106.308V38.2832H116.6V41.5617H102.531V18.957Z" fill="#F64909"/>
<path d="M125.576 18.957H133.385C136.207 18.957 138.308 19.6257 139.729 20.9414C141.13 22.2571 141.851 24.0474 141.851 26.3122C141.851 28.5985 141.151 30.3888 139.729 31.7261C138.329 33.0418 136.207 33.7105 133.385 33.7105H129.353V41.5617H125.576V18.957ZM133.406 30.4319C135.04 30.4319 136.207 30.0868 136.95 29.3966C137.671 28.7064 138.053 27.6926 138.053 26.3338C138.053 25.018 137.692 24.0043 136.95 23.314C136.228 22.6238 135.04 22.2787 133.406 22.2787H129.374V30.4535H133.406V30.4319Z" fill="#F64909"/>
<path d="M150.783 18.957H158.592C161.414 18.957 163.515 19.6257 164.936 20.9414C166.337 22.2571 167.058 24.0474 167.058 26.3122C167.058 28.5985 166.358 30.3888 164.936 31.7261C163.536 33.0418 161.414 33.7105 158.592 33.7105H154.56V41.5617H150.783V18.957ZM158.592 30.4319C160.226 30.4319 161.393 30.0868 162.135 29.3966C162.857 28.7064 163.239 27.6926 163.239 26.3338C163.239 25.018 162.878 24.0043 162.135 23.314C161.414 22.6238 160.226 22.2787 158.592 22.2787H154.56V30.4535H158.592V30.4319Z" fill="#F64909"/>
<path d="M175.971 18.957H179.748V35.2203L189.148 18.957H192.989V41.5617H189.212V25.2984L179.748 41.5617H175.971V18.957Z" fill="#F64909"/>
<path d="M204.406 41.6099C203.918 41.6099 203.472 41.5236 203.048 41.3295C202.623 41.1354 202.263 40.8981 201.944 40.5746C201.626 40.251 201.393 39.8844 201.202 39.453C201.011 39.0216 200.926 38.5686 200.926 38.0725C200.926 37.5764 201.011 37.1235 201.202 36.6921C201.393 36.2607 201.626 35.894 201.944 35.5705C202.263 35.2469 202.623 35.0097 203.048 34.8156C203.472 34.6214 203.918 34.5352 204.406 34.5352C204.894 34.5352 205.339 34.6214 205.764 34.8156C206.188 35.0097 206.549 35.2469 206.867 35.5705C207.185 35.894 207.419 36.2607 207.61 36.6921C207.801 37.1235 207.886 37.5764 207.886 38.0725C207.886 38.5686 207.801 39.0216 207.61 39.453C207.419 39.8844 207.185 40.251 206.867 40.5746C206.549 40.8981 206.188 41.1354 205.764 41.3295C205.339 41.5236 204.894 41.6099 204.406 41.6099ZM204.406 40.6393C204.745 40.6393 205.085 40.5746 205.382 40.4452C205.679 40.3157 205.955 40.1216 206.167 39.9059C206.4 39.6687 206.57 39.4098 206.697 39.1079C206.825 38.8059 206.888 38.4608 206.888 38.1157C206.888 37.7706 206.825 37.4254 206.697 37.1235C206.57 36.8215 206.379 36.5411 206.167 36.3254C205.934 36.0881 205.679 35.9156 205.382 35.7862C205.085 35.6568 204.745 35.5921 204.406 35.5921C204.066 35.5921 203.727 35.6568 203.43 35.7862C203.133 35.9156 202.857 36.1097 202.645 36.3254C202.411 36.5627 202.241 36.8215 202.114 37.1235C201.987 37.4254 201.923 37.7706 201.923 38.1157C201.923 38.4608 201.987 38.8059 202.114 39.1079C202.241 39.4098 202.432 39.6902 202.645 39.9059C202.878 40.1432 203.133 40.3157 203.43 40.4452C203.727 40.5746 204.066 40.6393 204.406 40.6393ZM203.133 36.347H204.406C204.894 36.347 205.255 36.4548 205.488 36.649C205.721 36.8431 205.827 37.1235 205.827 37.4902C205.827 37.9647 205.615 38.3098 205.17 38.5039L205.806 39.8412H204.894L204.406 38.6333H203.981V39.8412H203.133V36.347ZM204.406 37.8568C204.618 37.8568 204.766 37.8353 204.851 37.7706C204.936 37.7059 204.957 37.6196 204.957 37.4902C204.957 37.3607 204.915 37.2745 204.851 37.2098C204.766 37.145 204.618 37.1235 204.406 37.1235H203.981V37.8784H204.406V37.8568Z" fill="#F64909"/>
</g>
<defs>
<clipPath id="clip0_2076_1362">
<rect width="246" height="50" fill="white"/>
</clipPath>
</defs>
</svg>
