<svg width="80" height="80" viewBox="0 0 80 80" fill="none" xmlns="http://www.w3.org/2000/svg">
<path d="M29.5474 44.4437C29.1481 44.9156 14.0852 61.503 13.7585 61.8296C14.6296 61.8659 15.537 61.7207 16.3355 61.503C17.6422 61.14 18.8763 60.5593 20.0015 59.8333C25.8815 56.0585 28.9304 55.8044 32.4511 55.4052C37.5326 54.8244 42.36 52.683 46.0985 49.1622C52.5592 43.0644 51.8696 36.9304 52.1963 36.3496C53.0674 31.4859 55.0274 30.0704 55.3541 29.7437C58.4393 26.84 65.2993 25.2067 69.5459 24.9889C67.8763 24.4081 58.7296 24.9526 55.3904 26.1141C53.0311 23.9726 48.5667 22.0126 44.8281 24.8437C43.9207 25.5333 43.1948 26.5133 42.723 27.5659C41.9607 29.2356 40.9807 31.7037 40.2548 32.5385C38.5126 31.1956 35.0644 28.9089 31.8341 26.84C25.8089 22.9563 19.0941 20.343 12.0526 19.1452C11.3993 19.0363 11 19 11 19C11 19 19.4933 34.6437 22.0704 37.8378C24.5022 41.6489 29.5474 44.4437 29.5474 44.4437Z" fill="#F64909"/>
</svg>
