<svg width="20" height="20" viewBox="0 0 20 20" fill="none" xmlns="http://www.w3.org/2000/svg">
<g clip-path="url(#clip0_897_8425)">
<path d="M18.3495 19.7087L0.291262 1.65049C-0.0970874 1.26214 -0.0970874 0.679612 0.291262 0.291262C0.679612 -0.0970874 1.26214 -0.0970874 1.65049 0.291262L19.7087 18.3495C20.0971 18.7379 20.0971 19.3204 19.7087 19.7087C19.3204 20.0971 18.7379 20.0971 18.3495 19.7087Z" fill="white"/>
<path d="M0.291262 19.7087C-0.0970874 19.3204 -0.0970874 18.7379 0.291262 18.3495L18.3495 0.291262C18.7379 -0.0970874 19.3204 -0.0970874 19.7087 0.291262C20.0971 0.679612 20.0971 1.26214 19.7087 1.65049L1.65049 19.7087C1.26214 20.0971 0.679612 20.0971 0.291262 19.7087Z" fill="white"/>
</g>
<defs>
<clipPath id="clip0_897_8425">
<rect width="20" height="20" fill="white"/>
</clipPath>
</defs>
</svg>
