<svg width="220" height="82" viewBox="0 0 220 82" fill="none" xmlns="http://www.w3.org/2000/svg">
<g clip-path="url(#clip0_2970_31338)">
<path d="M12.5334 54.1196C12.0897 54.3994 11.4243 54.7353 10.4815 55.0711C9.53869 55.4069 8.42954 55.5749 7.20948 55.5749C4.76935 55.5749 2.93925 54.9592 1.77464 53.7278C0.610033 52.5523 0 50.5933 0 47.9626V40.4062H3.99294V47.7946C3.99294 48.5783 4.0484 49.194 4.15931 49.7537C4.27023 50.3134 4.49206 50.7612 4.8248 51.097C5.10209 51.4329 5.54575 51.7127 6.04487 51.8247C6.54399 51.9926 7.20948 52.0486 7.98588 52.0486C9.03958 52.0486 9.98235 51.8807 10.7588 51.6008C11.5352 51.3209 12.1452 50.9851 12.5334 50.5933V40.4062H16.5263V64.1387H12.5334V54.1196Z" fill="white"/>
<path d="M27.2293 40.4062H31.2222V57.5339L41.1491 40.4062H45.1975V64.1387H41.2046V47.067L31.1668 64.1946H27.1738V40.4062H27.2293Z" fill="white"/>
<path d="M63.3318 64.4796C60.6699 64.4796 58.6179 63.8639 57.176 62.5766C55.7341 61.2892 54.8468 59.554 54.625 57.3711H58.6179C58.7843 58.4906 59.2834 59.3861 60.0044 60.0018C60.7253 60.6175 61.8345 60.9534 63.3318 60.9534C65.051 60.9534 66.2711 60.6175 66.992 60.0018C67.713 59.3861 68.1012 58.4906 68.1012 57.3711C68.1012 56.1957 67.713 55.3001 66.992 54.6844C66.2711 54.0687 65.051 53.7329 63.3318 53.7329H60.448V50.2626H63.3873C64.7183 50.2626 65.7165 49.9827 66.382 49.367C67.0475 48.7513 67.3802 47.9677 67.3802 47.0162C67.3802 46.0087 67.0475 45.1691 66.382 44.5534C65.7165 43.9377 64.7183 43.6578 63.3873 43.6578C62.0009 43.6578 60.9472 43.9377 60.2262 44.5534C59.5053 45.1691 59.0616 45.9527 59.0061 47.0162H55.1241C55.235 46.0087 55.4569 45.1131 55.8451 44.2735C56.2333 43.4339 56.7878 42.7063 57.5088 42.0906C58.2297 41.4749 59.0616 41.0271 60.0044 40.6913C61.0026 40.3554 62.1118 40.1875 63.3318 40.1875C64.6074 40.1875 65.772 40.3554 66.7702 40.6913C67.7684 41.0271 68.6003 41.4749 69.2658 42.0906C69.9313 42.7063 70.4304 43.3779 70.8186 44.1616C71.1513 44.9452 71.3177 45.8407 71.3177 46.7923C71.3177 48.0237 70.985 49.0312 70.3749 49.8708C69.7649 50.7104 68.933 51.382 67.9348 51.8298C69.2103 52.2216 70.2086 52.8933 70.985 53.7889C71.7614 54.7404 72.0941 55.9718 72.0941 57.539C72.0941 58.6025 71.9277 59.5541 71.5395 60.3936C71.2068 61.2332 70.6522 61.9609 69.9313 62.5766C69.2103 63.1923 68.323 63.6401 67.2139 63.9759C66.1047 64.3117 64.8292 64.4796 63.3318 64.4796Z" fill="white"/>
<path d="M81.6895 40.4062H96.8848V43.8766H85.6824V49.3619H89.9526C91.45 49.3619 92.7255 49.5298 93.8346 49.9216C94.9438 50.2574 95.8866 50.7612 96.663 51.4329C97.4394 52.1045 97.994 52.8322 98.3267 53.7837C98.7149 54.6793 98.8813 55.6868 98.8813 56.8062C98.8813 57.9257 98.7149 58.9332 98.3267 59.8288C97.9385 60.7243 97.3839 61.508 96.663 62.1796C95.8866 62.8513 94.9993 63.3551 93.8346 63.6909C92.7255 64.0267 91.3945 64.2506 89.9526 64.2506H81.6895V40.4062ZM89.9526 60.7243C91.6718 60.7243 92.9473 60.3885 93.7237 59.6609C94.5001 58.9892 94.8883 57.9817 94.8883 56.8062C94.8883 55.5749 94.5001 54.5673 93.7237 53.8957C92.9473 53.168 91.7273 52.8322 89.9526 52.8322H85.6824V60.7243H89.9526Z" fill="white"/>
<path d="M108.531 40.4062H123.449V43.8766H112.58V50.2015H122.285V53.6718H112.58V60.6684H123.449V64.1387H108.531V40.4062Z" fill="white"/>
<path d="M132.932 40.4062H141.195C144.19 40.4062 146.408 41.0779 147.905 42.4772C149.403 43.8766 150.123 45.7796 150.123 48.1305C150.123 50.5373 149.403 52.4404 147.905 53.8397C146.408 55.239 144.19 55.9107 141.195 55.9107H136.925V64.1387H132.932V40.4062ZM141.195 52.4964C142.914 52.4964 144.19 52.1045 144.966 51.3769C145.742 50.6493 146.131 49.5858 146.131 48.1865C146.131 46.7871 145.742 45.7237 144.966 44.996C144.19 44.2684 142.969 43.8766 141.195 43.8766H136.925V52.4404H141.195V52.4964Z" fill="white"/>
<path d="M159.607 40.4062H167.871C170.865 40.4062 173.084 41.0779 174.581 42.4772C176.078 43.8766 176.799 45.7796 176.799 48.1305C176.799 50.5373 176.078 52.4404 174.581 53.8397C173.084 55.239 170.865 55.9107 167.871 55.9107H163.6V64.1387H159.607V40.4062ZM167.871 52.4964C169.59 52.4964 170.865 52.1045 171.642 51.3769C172.418 50.6493 172.806 49.5858 172.806 48.1865C172.806 46.7871 172.418 45.7237 171.642 44.996C170.865 44.2684 169.645 43.8766 167.871 43.8766H163.6V52.4404H167.871V52.4964Z" fill="white"/>
<path d="M186.227 40.4062H190.22V57.5339L200.202 40.4062H204.25V64.1387H200.257V47.067L190.22 64.1946H186.227V40.4062Z" fill="white"/>
<path d="M25.8984 79.2637H26.6748C26.8412 79.0398 26.9521 78.7599 27.063 78.4801C27.174 78.2002 27.2294 77.8644 27.2849 77.5285C27.3403 77.1927 27.3958 76.8009 27.3958 76.3531C27.3958 75.9053 27.3958 75.4576 27.3958 74.8978V72.8828H32.387V79.2637H33.3297V82.0064H31.9433V80.607H27.2849V82.0064H25.8984V79.2637ZM30.8896 79.2637V74.2262H28.8931V74.9538C28.8931 75.4016 28.8931 75.8494 28.8931 76.2412C28.8931 76.633 28.8377 77.0248 28.7822 77.3606C28.7268 77.6965 28.6713 78.0323 28.6159 78.3681C28.5604 78.704 28.4495 78.9838 28.2831 79.3197H30.8896V79.2637Z" fill="white"/>
<path d="M37.4883 72.9375H42.424V74.2808H39.0411V76.016H42.0358V77.3593H39.0411V79.3184H42.424V80.6617H37.4883V72.9375Z" fill="white"/>
<path d="M49.5228 80.7203C48.58 80.7203 47.8591 80.4404 47.3045 79.8247C46.7499 79.209 46.4727 78.3134 46.4727 77.082V76.1865C46.4727 75.067 46.7499 74.2274 47.3045 73.6677C47.8591 73.108 48.58 72.8281 49.5228 72.8281C49.9665 72.8281 50.3547 72.8841 50.6874 72.996C51.0202 73.108 51.2975 73.2759 51.5747 73.4998C51.7966 73.7237 52.0184 74.0035 52.1293 74.2834C52.2402 74.6192 52.3512 74.9551 52.4066 75.3469H50.8538C50.7983 74.9551 50.632 74.6752 50.4656 74.5073C50.2992 74.3394 49.9665 74.2274 49.5228 74.2274C49.0792 74.2274 48.691 74.3954 48.4691 74.6752C48.1918 75.0111 48.0809 75.5148 48.0809 76.2425V77.138C48.0809 77.5858 48.1364 77.9216 48.1918 78.2015C48.2473 78.4814 48.3582 78.7053 48.4691 78.8732C48.58 79.0411 48.7464 79.153 48.9128 79.265C49.0792 79.321 49.301 79.3769 49.5228 79.3769C49.9665 79.3769 50.2438 79.265 50.4656 79.0411C50.632 78.8172 50.7983 78.5373 50.8538 78.1455H52.4066C52.2957 78.9851 52.0184 79.6008 51.5747 80.0486C51.0756 80.4964 50.4101 80.7203 49.5228 80.7203Z" fill="white"/>
<path d="M56.6777 72.9375H61.6135V74.2808H58.2305V76.016H61.2253V77.3593H58.2305V79.3184H61.6135V80.6617H56.6777V72.9375Z" fill="white"/>
<path d="M65.9395 72.9375H68.7123C69.7106 72.9375 70.487 73.1614 70.9861 73.6092C71.4852 74.057 71.707 74.6727 71.707 75.4563C71.707 76.2399 71.4852 76.8556 70.9861 77.3593C70.487 77.8071 69.766 78.031 68.7123 78.031H67.4923V80.6058H65.9395V72.9375ZM68.7123 76.7436C69.2114 76.7436 69.5996 76.6317 69.8215 76.4078C70.0433 76.1839 70.1542 75.9041 70.1542 75.4563C70.1542 75.0085 70.0433 74.7286 69.8215 74.5047C69.5996 74.2808 69.2114 74.1689 68.7123 74.1689H67.4923V76.6317H68.7123V76.7436Z" fill="white"/>
<path d="M77.4734 74.2262H75.3105V72.8828H81.2445V74.2262H79.0817V80.607H77.5288V74.2262H77.4734Z" fill="white"/>
<path d="M85.1816 72.9375H86.7344V75.7361H87.6218C88.1209 75.7361 88.5645 75.7921 88.9527 75.9041C89.3409 76.016 89.6182 76.1839 89.8955 76.4078C90.1174 76.6317 90.3392 76.8556 90.4501 77.1914C90.561 77.4713 90.6165 77.8071 90.6165 78.1989C90.6165 78.5907 90.561 78.8706 90.4501 79.2064C90.3392 79.4863 90.1174 79.7662 89.8955 79.9901C89.6737 80.2139 89.3409 80.3819 88.9527 80.4938C88.5645 80.6058 88.1209 80.6617 87.6218 80.6617H85.1816V72.9375ZM87.6772 79.2624C88.1763 79.2624 88.5645 79.1505 88.7864 78.9826C89.0082 78.7587 89.1191 78.4788 89.1191 78.143C89.1191 77.7512 89.0082 77.4713 88.7864 77.3034C88.5645 77.0795 88.1763 77.0235 87.6772 77.0235H86.7899V79.3184H87.6772V79.2624ZM91.1156 72.9375H92.6684V80.6058H91.1156V72.9375Z" fill="white"/>
<path d="M103.15 72.9375H108.973V80.6058H107.421V74.2249H104.703V80.6058H103.15V72.9375Z" fill="white"/>
<path d="M116.406 80.7203C115.463 80.7203 114.742 80.4404 114.187 79.8247C113.633 79.209 113.355 78.3134 113.355 77.082V76.1865C113.355 75.067 113.633 74.2274 114.187 73.6677C114.742 73.108 115.463 72.8281 116.406 72.8281C117.348 72.8281 118.069 73.108 118.624 73.6677C119.179 74.2274 119.456 75.067 119.456 76.1865V77.082C119.456 78.3134 119.179 79.209 118.624 79.8247C118.125 80.3844 117.348 80.7203 116.406 80.7203ZM116.406 79.3769C116.627 79.3769 116.849 79.321 117.016 79.265C117.182 79.209 117.348 79.0411 117.459 78.8732C117.57 78.7053 117.681 78.4814 117.737 78.2015C117.792 77.9216 117.848 77.5298 117.848 77.138V76.2425C117.848 75.5148 117.737 74.9551 117.459 74.6752C117.182 74.3394 116.849 74.2274 116.406 74.2274C115.962 74.2274 115.574 74.3954 115.352 74.6752C115.075 75.0111 114.964 75.5148 114.964 76.2425V77.138C114.964 77.5858 115.019 77.9216 115.075 78.2015C115.13 78.4814 115.241 78.7053 115.352 78.8732C115.463 79.0411 115.629 79.153 115.796 79.265C116.017 79.321 116.184 79.3769 116.406 79.3769Z" fill="white"/>
<path d="M128.994 79.1518C129.216 79.0958 129.438 79.0398 129.604 78.9838C129.771 78.8719 129.881 78.704 129.992 78.4801C130.103 78.2562 130.159 77.9204 130.159 77.5285C130.214 77.1367 130.214 76.633 130.214 76.0173V72.8828H135.372V80.607H133.819V74.2262H131.656V76.0173C131.656 76.9128 131.601 77.6965 131.545 78.2562C131.434 78.8719 131.323 79.3197 131.102 79.6555C130.88 79.9913 130.602 80.2712 130.27 80.3832C129.937 80.5511 129.493 80.607 128.994 80.663V79.1518Z" fill="white"/>
<path d="M145.354 80.7203C144.911 80.7203 144.523 80.6643 144.19 80.5524C143.857 80.4404 143.58 80.2165 143.302 79.9367C143.081 79.6568 142.859 79.321 142.748 78.8732C142.637 78.4254 142.526 77.9216 142.526 77.3059H141.639V80.6083H140.086V72.9401H141.639V76.0186H142.526C142.582 74.8991 142.859 74.1155 143.302 73.6117C143.802 73.108 144.467 72.8281 145.299 72.8281C145.743 72.8281 146.131 72.8841 146.464 73.052C146.796 73.164 147.129 73.3879 147.351 73.6677C147.573 73.9476 147.795 74.2834 147.905 74.7312C148.016 75.179 148.072 75.6827 148.072 76.2984V77.0261C148.072 77.6977 148.016 78.2575 147.905 78.7053C147.795 79.153 147.573 79.5448 147.351 79.8247C147.129 80.1046 146.796 80.3285 146.464 80.4964C146.186 80.6083 145.798 80.7203 145.354 80.7203ZM145.354 79.3769C145.576 79.3769 145.743 79.321 145.854 79.265C146.02 79.209 146.131 79.0971 146.242 78.9291C146.353 78.7612 146.408 78.5373 146.519 78.2015C146.574 77.9216 146.63 77.4739 146.63 77.0261V76.2984C146.63 75.8506 146.574 75.5148 146.519 75.2349C146.464 74.9551 146.353 74.7312 146.242 74.5633C146.131 74.3954 146.02 74.2834 145.854 74.2274C145.687 74.1715 145.521 74.1155 145.354 74.1155C145.188 74.1155 144.966 74.1715 144.855 74.2274C144.689 74.2834 144.578 74.3954 144.467 74.5633C144.356 74.7312 144.301 74.9551 144.19 75.2349C144.134 75.5148 144.079 75.8506 144.079 76.2984V77.0261C144.079 77.5298 144.134 77.9216 144.19 78.2015C144.245 78.4814 144.356 78.7612 144.467 78.9291C144.578 79.0971 144.689 79.209 144.855 79.265C144.966 79.321 145.133 79.3769 145.354 79.3769Z" fill="white"/>
<path d="M152.619 72.9375H157.721V74.2808H154.172V75.7361H155.392C155.891 75.7361 156.335 75.7921 156.723 75.9041C157.111 76.016 157.388 76.1839 157.666 76.4078C157.888 76.6317 158.109 76.8556 158.22 77.1914C158.331 77.4713 158.387 77.8071 158.387 78.1989C158.387 78.5907 158.331 78.8706 158.22 79.2064C158.109 79.4863 157.888 79.7662 157.666 79.9901C157.444 80.2139 157.111 80.3819 156.723 80.4938C156.335 80.6058 155.891 80.6617 155.392 80.6617H152.619V72.9375ZM155.337 79.2624C155.836 79.2624 156.224 79.1505 156.446 78.9826C156.668 78.7587 156.778 78.4788 156.778 78.143C156.778 77.7512 156.668 77.4713 156.446 77.3034C156.224 77.0795 155.836 77.0235 155.337 77.0235H154.172V79.3184H155.337V79.2624Z" fill="white"/>
<path d="M162.713 72.9375H165.541C166.373 72.9375 167.039 73.1054 167.538 73.4413C168.037 73.7771 168.259 74.2808 168.259 74.9525C168.259 75.3443 168.148 75.6802 167.981 75.9041C167.815 76.1839 167.538 76.4078 167.26 76.5757C167.649 76.7436 167.926 76.9116 168.148 77.2474C168.37 77.5273 168.48 77.9191 168.48 78.4228C168.48 78.7027 168.425 79.0385 168.314 79.2624C168.203 79.5423 168.037 79.7662 167.815 79.9341C167.593 80.102 167.26 80.2699 166.928 80.3819C166.595 80.4938 166.151 80.5498 165.652 80.5498H162.713V72.9375ZM165.541 76.016C165.929 76.016 166.207 75.96 166.429 75.7921C166.595 75.6242 166.706 75.4003 166.706 75.1764C166.706 74.8965 166.595 74.6727 166.429 74.5047C166.262 74.3368 165.929 74.2808 165.541 74.2808H164.266V76.072H165.541V76.016ZM165.541 79.2624C166.04 79.2624 166.429 79.1505 166.595 78.9826C166.817 78.8146 166.928 78.5348 166.928 78.2549C166.928 77.9191 166.817 77.6952 166.65 77.4713C166.429 77.3034 166.096 77.1914 165.541 77.1914H164.266V79.2064H165.541V79.2624Z" fill="white"/>
<path d="M172.805 72.9375H174.357V78.087L177.297 72.9375H178.85V80.6058H177.297V75.4563L174.357 80.6058H172.805V72.9375Z" fill="white"/>
<path d="M216.34 47.7478C215.841 47.7478 215.342 47.6358 214.898 47.4679C214.454 47.3 214.066 47.0201 213.733 46.6843C213.401 46.3485 213.123 45.9566 212.957 45.5089C212.791 45.0611 212.68 44.5573 212.68 44.0536C212.68 43.5498 212.791 43.0461 212.957 42.5983C213.123 42.1505 213.401 41.7587 213.733 41.4229C214.066 41.087 214.454 40.8072 214.898 40.6392C215.342 40.4713 215.841 40.3594 216.34 40.3594C216.839 40.3594 217.338 40.4713 217.782 40.6392C218.225 40.8072 218.614 41.087 218.946 41.4229C219.279 41.7587 219.556 42.1505 219.723 42.5983C219.889 43.0461 220 43.5498 220 44.0536C220 44.5573 219.889 45.0611 219.723 45.5089C219.556 45.9566 219.279 46.3485 218.946 46.6843C218.614 47.0201 218.225 47.3 217.782 47.4679C217.338 47.6358 216.839 47.7478 216.34 47.7478ZM216.34 46.6843C216.728 46.6843 217.061 46.6283 217.394 46.4604C217.726 46.2925 218.004 46.1246 218.225 45.9007C218.447 45.6768 218.669 45.3969 218.78 45.0611C218.946 44.7252 219.002 44.3894 219.002 43.9976C219.002 43.6058 218.946 43.27 218.78 42.9341C218.614 42.5983 218.447 42.3184 218.225 42.0945C218.004 41.8706 217.726 41.6467 217.394 41.5348C217.061 41.3669 216.728 41.3109 216.34 41.3109C215.952 41.3109 215.619 41.3669 215.286 41.5348C214.953 41.7027 214.676 41.8706 214.454 42.0945C214.233 42.3184 214.011 42.5983 213.9 42.9341C213.733 43.27 213.678 43.6058 213.678 43.9976C213.678 44.3894 213.733 44.7252 213.9 45.0611C214.066 45.3969 214.233 45.6768 214.454 45.9007C214.676 46.1246 214.953 46.3485 215.286 46.4604C215.619 46.6283 216.007 46.6843 216.34 46.6843ZM215.009 42.2065H216.34C216.839 42.2065 217.227 42.3184 217.449 42.5423C217.671 42.7662 217.782 43.0461 217.782 43.4379C217.782 43.9416 217.56 44.2775 217.116 44.5014L217.782 45.9007H216.839L216.34 44.6133H215.896V45.9007H215.009V42.2065ZM216.34 43.7737C216.562 43.7737 216.728 43.7177 216.784 43.6618C216.839 43.6058 216.894 43.4938 216.894 43.3819C216.894 43.27 216.839 43.158 216.784 43.102C216.728 43.0461 216.562 42.9901 216.34 42.9901H215.896V43.7737H216.34Z" fill="white"/>
<path d="M99.8235 15.8441C99.5462 16.124 90.2848 26.4789 90.0629 26.7028C90.6175 26.7028 91.1721 26.6469 91.6712 26.4789C92.5031 26.2551 93.224 25.9192 93.945 25.4714C97.6052 23.1206 99.4907 22.9527 101.654 22.7288C104.815 22.337 107.809 20.9936 110.083 18.8107C114.076 15.0045 113.632 11.1424 113.854 10.8066C114.409 7.78406 115.573 6.8885 115.795 6.66461C117.736 4.87348 121.951 3.81 124.558 3.69805C123.504 3.30625 117.847 3.69805 115.795 4.36973C114.353 3.02638 111.58 1.79498 109.251 3.58611C108.697 4.03389 108.253 4.64959 107.976 5.26529C107.532 6.32877 106.922 7.84003 106.478 8.34379C105.425 7.5042 103.262 6.10488 101.265 4.76154C97.5497 2.35471 93.3904 0.731501 89.0092 -0.0521171C88.621 -0.10809 88.3438 -0.164062 88.3438 -0.164062C88.3438 -0.164062 93.6122 9.63116 95.2205 11.5902C96.7178 14.109 99.8235 15.8441 99.8235 15.8441Z" fill="white"/>
</g>
<defs>
<clipPath id="clip0_2970_31338">
<rect width="220" height="82" fill="white"/>
</clipPath>
</defs>
</svg>
