<svg width="80" height="80" viewBox="0 0 80 80" fill="none" xmlns="http://www.w3.org/2000/svg">
<path d="M18.5474 44.4437C18.1481 44.9156 3.08519 61.503 2.75852 61.8296C3.62963 61.8659 4.53703 61.7207 5.33555 61.503C6.64222 61.14 7.87629 60.5593 9.00148 59.8333C14.8815 56.0585 17.9304 55.8044 21.4511 55.4052C26.5326 54.8244 31.36 52.683 35.0985 49.1622C41.5592 43.0644 40.8696 36.9304 41.1963 36.3496C42.0674 31.4859 44.0274 30.0704 44.3541 29.7437C47.4393 26.84 54.2993 25.2067 58.5459 24.9889C56.8763 24.4081 47.7296 24.9526 44.3904 26.1141C42.0311 23.9726 37.5667 22.0126 33.8281 24.8437C32.9207 25.5333 32.1948 26.5133 31.723 27.5659C30.9607 29.2356 29.9807 31.7037 29.2548 32.5385C27.5126 31.1956 24.0644 28.9089 20.8341 26.84C14.8089 22.9563 8.09407 20.343 1.05259 19.1452C0.399257 19.0363 0 19 0 19C0 19 8.49333 34.6437 11.0704 37.8378C13.5022 41.6489 18.5474 44.4437 18.5474 44.4437Z" fill="#F64909"/>
</svg>
