<svg width="60" height="60" viewBox="0 0 60 60" fill="none" xmlns="http://www.w3.org/2000/svg">
<path d="M26.8 12.4C34.72 12.4 41.2 18.88 41.2 26.8C41.2 34.72 34.72 41.2 26.8 41.2C18.88 41.2 12.4 34.72 12.4 26.8C12.4 18.88 18.88 12.4 26.8 12.4ZM26.8 10C17.52 10 10 17.52 10 26.8C10 36.08 17.52 43.6 26.8 43.6C36.08 43.6 43.6 36.08 43.6 26.8C43.6 17.52 36.08 10 26.8 10Z" fill="white"/>
<path d="M48.56 49.68C48.24 49.68 47.92 49.6 47.68 49.36L39.76 41.44C39.28 40.96 39.28 40.24 39.76 39.76C40.24 39.28 40.96 39.28 41.44 39.76L49.36 47.68C49.84 48.16 49.84 48.88 49.36 49.36C49.12 49.6 48.88 49.68 48.56 49.68Z" fill="white"/>
</svg>
