<?xml version="1.0" encoding="utf-8"?>
<!-- Generator: Adobe Illustrator 24.1.2, SVG Export Plug-In . SVG Version: 6.00 Build 0)  -->
<svg version="1.1" id="Слой_1" xmlns="http://www.w3.org/2000/svg" xmlns:xlink="http://www.w3.org/1999/xlink" x="0px" y="0px"
	 viewBox="0 0 40 40" style="enable-background:new 0 0 40 40;" xml:space="preserve">
<style type="text/css">
	.st0{fill:none;stroke:#FFFFFF;stroke-width:2;stroke-miterlimit:10;}
</style>
<path class="st0" d="M27.8,21.8l-0.1,0.4c-0.2,0.9-0.8,1.6-1.7,2c-0.7,0.3-1.4,0.4-2.2,0.4c-0.7,0-1.4-0.1-2.2-0.2
	c-4-0.8-6.9-4.7-8.2-7.6c-0.3-0.6-0.4-1.3-0.5-2c-0.1-0.7,0.1-1.2,0.3-2c0.4-1.4,2.4-1.7,2.9-1.7c0.4,0,0.8,0.3,0.9,0.7
	c0.4,0.8,1.1,2.2,1.2,2.9c0.2,0.8-0.7,1.8-1.2,2.2c1,2,2.6,3.3,4.9,4.1c0.7-0.8,1.2-1.2,1.7-1.4c0.4-0.2,0.7-0.2,1.1,0l2.4,1.2
	C27.8,20.8,28,21.3,27.8,21.8z"/>
<path class="st0" d="M20.5,4.9c-7.2,0-13,5.8-13,13c0,2.5,0.7,4.9,2,6.9c0.5,0.9-0.9,3.6-2,6.2c3.6-1.7,5.1-2.8,5.7-2.3
	c2.1,1.4,4.6,2.2,7.2,2.2c7.2,0,13-5.8,13-13C33.5,10.7,27.7,4.9,20.5,4.9z"/>
</svg>
