<svg width="50" height="50" viewBox="0 0 50 50" fill="none" xmlns="http://www.w3.org/2000/svg">
<g clip-path="url(#clip0_2149_23252)">
<path d="M50 50C41.7 50 34.3 40 26 40C17.7 40 8.3 50 0 50C0 33.3 0 16.7 0 0H50V50Z" fill="#F64909"/>
<path d="M8.99844 22.66L5.17844 16H8.29844L10.7384 20.36L13.1784 16H16.2184L12.4184 22.6L16.6184 30H13.4784L10.6584 24.92L7.81844 30H4.77844L8.99844 22.66ZM20.5361 16H23.3961V25.4L28.7561 16H31.6561V30H28.7961V20.6L23.3761 30H20.5361V16ZM39.4753 18.38H35.4553V16H46.3353V18.38H42.3153V30H39.4753V18.38Z" fill="white"/>
</g>
<defs>
<clipPath id="clip0_2149_23252">
<rect width="50" height="50" fill="white"/>
</clipPath>
</defs>
</svg>
